<svg xmlns="http://www.w3.org/2000/svg" viewBox="0 -0.5 120 32" shape-rendering="crispEdges">
<metadata>Made with Pixels to Svg https://codepen.io/shshaw/pen/XbxvNj</metadata>
<path stroke="#00e436" d="M0 0h6M8 0h6M20 0h6M32 0h4M42 0h4M0 1h6M8 1h6M20 1h6M32 1h4M42 1h4M0 2h6M8 2h6M20 2h6M32 2h6M40 2h6M0 3h6M8 3h6M20 3h6M32 3h6M40 3h6M0 4h6M8 4h6M18 4h10M34 4h10M0 5h6M8 5h6M18 5h10M34 5h10M0 6h14M18 6h4M24 6h4M36 6h6M0 7h14M18 7h4M24 7h4M36 7h6M0 8h14M16 8h14M34 8h10M0 9h14M16 9h14M34 9h10M0 10h6M8 10h6M16 10h14M32 10h6M40 10h6M0 11h6M8 11h6M16 11h14M32 11h6M40 11h6M0 12h4M10 12h4M16 12h4M26 12h4M32 12h4M42 12h4M0 13h4M10 13h4M16 13h4M26 13h4M32 13h4M42 13h4" />
<path stroke="#008751" d="M6 0h2M14 0h2M26 0h2M36 0h2M46 0h2M6 1h2M14 1h2M26 1h2M36 1h2M46 1h2M6 2h2M14 2h2M26 2h2M38 2h2M46 2h2M6 3h2M14 3h2M26 3h2M38 3h2M46 3h2M6 4h2M14 4h2M28 4h2M32 4h2M44 4h4M6 5h2M14 5h2M28 5h2M32 5h2M44 5h4M14 6h2M22 6h2M28 6h2M34 6h2M42 6h4M14 7h2M22 7h2M28 7h2M34 7h2M42 7h4M14 8h2M30 8h2M44 8h2M14 9h2M30 9h2M44 9h2M6 10h2M14 10h2M30 10h2M38 10h2M46 10h2M6 11h2M14 11h2M30 11h2M38 11h2M46 11h2M4 12h6M14 12h2M20 12h6M30 12h2M36 12h6M46 12h2M4 13h6M14 13h2M20 13h6M30 13h2M36 13h6M46 13h2M0 14h6M10 14h12M26 14h12M42 14h6M0 15h6M10 15h12M26 15h12M42 15h6" />
<path stroke="#ff004d" d="M50 0h12M64 0h12M80 0h6M88 0h12M104 0h12M50 1h12M64 1h12M80 1h6M88 1h12M104 1h12M48 2h14M64 2h14M80 2h6M88 2h14M104 2h14M48 3h14M64 3h14M80 3h6M88 3h14M104 3h14M48 4h6M64 4h6M72 4h6M88 4h6M96 4h6M112 4h6M48 5h6M64 5h6M72 5h6M88 5h6M96 5h6M112 5h6M48 6h6M56 6h6M64 6h12M80 6h6M88 6h6M96 6h6M104 6h6M112 6h6M48 7h6M56 7h6M64 7h12M80 7h6M88 7h6M96 7h6M104 7h6M112 7h6M48 8h6M56 8h6M64 8h14M80 8h6M88 8h6M96 8h6M104 8h6M112 8h6M48 9h6M56 9h6M64 9h14M80 9h6M88 9h6M96 9h6M104 9h6M112 9h6M48 10h14M64 10h6M72 10h6M80 10h6M88 10h6M96 10h6M104 10h14M48 11h14M64 11h6M72 11h6M80 11h6M88 11h6M96 11h6M104 11h14M50 12h12M64 12h6M72 12h6M80 12h6M88 12h6M96 12h6M104 12h12M50 13h12M64 13h6M72 13h6M80 13h6M88 13h6M96 13h6M104 13h12" />
<path stroke="#7e2553" d="M62 0h2M76 0h2M86 0h2M100 0h2M116 0h2M62 1h2M76 1h2M86 1h2M100 1h2M116 1h2M62 2h2M78 2h2M86 2h2M102 2h2M118 2h2M62 3h2M78 3h2M86 3h2M102 3h2M118 3h2M54 4h10M70 4h2M78 4h10M94 4h2M102 4h10M118 4h2M54 5h10M70 5h2M78 5h10M94 5h2M102 5h10M118 5h2M54 6h2M62 6h2M76 6h4M86 6h2M94 6h2M102 6h2M110 6h2M118 6h2M54 7h2M62 7h2M76 7h4M86 7h2M94 7h2M102 7h2M110 7h2M118 7h2M54 8h2M62 8h2M78 8h2M86 8h2M94 8h2M102 8h2M110 8h2M118 8h2M54 9h2M62 9h2M78 9h2M86 9h2M94 9h2M102 9h2M110 9h2M118 9h2M62 10h2M70 10h2M78 10h2M86 10h2M94 10h2M102 10h2M118 10h2M62 11h2M70 11h2M78 11h2M86 11h2M94 11h2M102 11h2M118 11h2M48 12h2M62 12h2M70 12h2M78 12h2M86 12h2M94 12h2M102 12h2M116 12h4M48 13h2M62 13h2M70 13h2M78 13h2M86 13h2M94 13h2M102 13h2M116 13h4M50 14h68M50 15h68" />
<path stroke="#c2c3c7" d="M34 16h4M40 16h4M50 16h8M64 16h14M80 16h8M90 16h4M34 17h4M40 17h4M50 17h8M64 17h14M80 17h8M90 17h4M32 18h4M42 18h4M52 18h4M68 18h4M82 18h4M90 18h2M32 19h4M42 19h4M52 19h4M68 19h4M82 19h4M90 19h2M32 20h4M44 20h2M52 20h4M68 20h4M82 20h4M90 20h2M32 21h4M44 21h2M52 21h4M68 21h4M82 21h4M90 21h2M32 22h4M52 22h4M68 22h4M84 22h4M32 23h4M52 23h4M68 23h4M84 23h4M32 24h4M52 24h4M68 24h4M86 24h4M32 25h4M52 25h4M68 25h4M86 25h4M32 26h4M42 26h4M52 26h4M68 26h4M88 26h2M32 27h4M42 27h4M52 27h4M68 27h4M88 27h2M34 28h4M40 28h4M50 28h8M66 28h8M84 28h8M34 29h4M40 29h4M50 29h8M66 29h8M84 29h8" />
<path stroke="#29adff" d="M38 16h2M44 16h2M58 16h2M78 16h2M88 16h2M94 16h2M38 17h2M44 17h2M58 17h2M78 17h2M88 17h2M94 17h2M36 18h6M46 18h2M50 18h2M56 18h4M64 18h4M72 18h10M86 18h4M92 18h4M36 19h6M46 19h2M50 19h2M56 19h4M64 19h4M72 19h10M86 19h4M92 19h4M36 20h2M42 20h2M46 20h2M56 20h2M72 20h2M86 20h2M92 20h4M36 21h2M42 21h2M46 21h2M56 21h2M72 21h2M86 21h2M92 21h4M36 22h2M44 22h4M56 22h2M72 22h2M82 22h2M88 22h6M36 23h2M44 23h4M56 23h2M72 23h2M82 23h2M88 23h6M36 24h2M56 24h2M72 24h2M84 24h2M90 24h2M36 25h2M56 25h2M72 25h2M84 25h2M90 25h2M36 26h2M46 26h2M56 26h2M72 26h2M90 26h2M36 27h2M46 27h2M56 27h2M72 27h2M90 27h2M32 28h2M38 28h2M44 28h4M58 28h2M74 28h2M92 28h2M32 29h2M38 29h2M44 29h4M58 29h2M74 29h2M92 29h2M34 30h12M50 30h10M66 30h10M84 30h10M34 31h12M50 31h10M66 31h10M84 31h10" />
</svg>